<svg width="74" height="70" viewBox="0 0 74 70" fill="none" xmlns="http://www.w3.org/2000/svg">
<path d="M7.66665 0C3.59665 0 0.333313 3.26333 0.333313 7.33333V44C0.333313 45.9449 1.10593 47.8102 2.4812 49.1855C3.85646 50.5607 5.72172 51.3333 7.66665 51.3333H37V69.6667L48 58.6667L59 69.6667V51.3333H66.3333C68.2782 51.3333 70.1435 50.5607 71.5188 49.1855C72.894 47.8102 73.6666 45.9449 73.6666 44V7.33333C73.6666 5.38841 72.894 3.52315 71.5188 2.14788C70.1435 0.772617 68.2782 0 66.3333 0H7.66665ZM37 7.33333L48 14.6667L59 7.33333V20.1667L70 25.6667L59 31.1667V44L48 36.6667L37 44V31.1667L26 25.6667L37 20.1667V7.33333ZM7.66665 7.33333H26V14.6667H7.66665V7.33333ZM7.66665 22H18.6666V29.3333H7.66665V22ZM7.66665 36.6667H26V44H7.66665V36.6667Z" fill="url(#paint0_linear_3106_2469)"/>
<defs>
<linearGradient id="paint0_linear_3106_2469" x1="0.333313" y1="34.8333" x2="73.6666" y2="34.8333" gradientUnits="userSpaceOnUse">
<stop stop-color="#1A2856"/>
<stop offset="1" stop-color="#334EA9"/>
</linearGradient>
</defs>
</svg>
